<svg width="157" height="48" viewBox="0 0 157 48" fill="none" xmlns="http://www.w3.org/2000/svg">
<path d="M4.37895 38V9.05029C6.48733 8.72593 9.71748 8.56374 14.0694 8.56374C16.9887 8.56374 19.2998 9.37466 21.0027 10.9965C22.7327 12.5913 23.5977 14.4969 23.5977 16.7134C23.5977 19.4435 22.5164 21.5789 20.354 23.1197C22.976 24.5523 24.2869 26.8229 24.2869 29.9314C24.2869 32.283 23.4355 34.2968 21.7326 35.9727C20.0567 37.6486 17.5158 38.4865 14.1099 38.4865C10.0554 38.4865 6.8117 38.3244 4.37895 38ZM9.00117 21.66H16.2589C16.5562 21.4168 16.786 21.2276 16.9481 21.0924C17.1374 20.9572 17.3401 20.768 17.5563 20.5248C17.7726 20.2545 17.9618 19.9706 18.124 19.6733C18.5294 18.9164 18.7322 18.1055 18.7322 17.2405C18.7322 13.8888 16.7724 12.2129 12.853 12.2129C12.0151 12.2129 10.7311 12.2669 9.00117 12.375V21.66ZM9.00117 34.5942C11.2177 34.7563 12.7314 34.8374 13.5423 34.8374C15.7047 34.8374 17.2185 34.4049 18.0834 33.54C18.9754 32.675 19.4214 31.4451 19.4214 29.8503C19.4214 28.2285 18.9619 27.0121 18.0429 26.2012C17.1509 25.3632 15.6101 24.9442 13.4207 24.9442H9.00117V34.5942ZM59.659 38H55.2801V7.42846L59.659 6.86082V25.3497L68.944 16.1053L74.215 16.5918L65.0111 25.2281L69.7144 31.8776C71.2011 33.9589 72.7418 35.0266 74.3366 35.0807V38.2027C74.1204 38.2568 73.6744 38.2838 72.9986 38.2838C70.2685 38.2838 68.0115 36.9728 66.2275 34.3509L61.8891 27.8635L59.659 29.9314V38ZM75.9163 36.9053L76.8489 33.6211C79.0654 34.5942 80.971 35.0807 82.5658 35.0807C85.323 35.0807 86.7015 34.1481 86.7015 32.283C86.7015 30.8234 85.377 29.607 82.728 28.6339C81.7009 28.2555 80.9305 27.9582 80.4169 27.7419C79.9033 27.4986 79.2681 27.1337 78.5113 26.6472C77.0246 25.6741 76.2812 24.2144 76.2812 22.2682C76.2812 20.295 76.9705 18.7543 78.3491 17.646C79.7547 16.5107 81.6468 15.9431 84.0255 15.9431C86.4312 15.9431 88.499 16.3485 90.229 17.1595C90.5534 17.2946 90.7291 17.3622 90.7561 17.3622L89.9046 20.6464C87.9314 19.7814 86.1744 19.3489 84.6337 19.3489C81.9306 19.3489 80.5791 20.268 80.5791 22.106C80.5791 22.6467 80.7142 23.0656 80.9845 23.363C81.2819 23.6333 81.5116 23.836 81.6738 23.9712C81.836 24.0793 82.1063 24.2279 82.4847 24.4172C82.8632 24.5793 83.1335 24.701 83.2957 24.7821C83.4849 24.8361 83.8228 24.9578 84.3093 25.147C84.7959 25.3362 85.2824 25.5254 85.769 25.7146C86.2825 25.8768 86.8096 26.1066 87.3502 26.4039C87.9179 26.7012 88.5126 27.1067 89.1343 27.6203C90.3777 28.6474 90.9994 30.2152 90.9994 32.3236C90.9994 33.7562 90.5804 34.9455 89.7424 35.8916C88.2558 37.6216 85.769 38.4865 82.282 38.4865C79.9574 38.4865 77.8355 37.9595 75.9163 36.9053ZM96.8044 38H92.4254V7.42846L96.8044 6.86082V17.7676C98.9398 16.4972 101.035 15.862 103.089 15.862C108.009 15.862 110.468 18.511 110.468 23.809V38H106.089V24.6199C106.089 21.0519 104.67 19.2678 101.832 19.2678C100.751 19.2678 99.7237 19.4706 98.7506 19.876C97.7775 20.2815 97.1287 20.6599 96.8044 21.0113V38ZM128.714 33.3778L130.214 36.1349C129.755 36.5674 128.782 37.0674 127.295 37.6351C125.808 38.2027 124.213 38.4865 122.51 38.4865C119.483 38.4865 117.037 37.5675 115.172 35.7294C113.334 33.8914 112.415 31.1342 112.415 27.4581C112.415 25.4308 112.739 23.6468 113.388 22.106C114.036 20.5383 114.874 19.3219 115.901 18.4569C118.01 16.727 120.213 15.862 122.51 15.862C124.835 15.862 126.673 16.4567 128.025 17.646C129.403 18.8083 130.092 20.2409 130.092 21.9439C130.092 24.1874 129.025 26.0255 126.889 27.4581C124.754 28.8637 121.335 29.5665 116.631 29.5665C116.631 30.8099 117.145 32.0398 118.172 33.2561C119.226 34.4725 120.767 35.0807 122.794 35.0807C124.849 35.0807 126.822 34.5131 128.714 33.3778ZM126.16 22.3088C126.16 21.4979 125.849 20.7951 125.227 20.2004C124.632 19.5787 123.781 19.2678 122.673 19.2678C120.889 19.2678 119.415 19.9436 118.253 21.2951C117.118 22.6196 116.537 24.3631 116.51 26.5255C122.943 26.5255 126.16 25.1199 126.16 22.3088ZM132.78 7.42846L137.159 6.86082V31.3099C137.159 33.8238 137.875 35.0807 139.307 35.0807C139.659 35.0807 140.308 34.9861 141.254 34.7969L141.781 37.7973C141.754 37.7973 141.632 37.8378 141.416 37.9189C141.227 38 140.997 38.0811 140.727 38.1622C140.051 38.3784 139.226 38.4865 138.253 38.4865C136.388 38.4865 135.01 37.8648 134.118 36.6214C133.226 35.351 132.78 33.6075 132.78 31.391V7.42846ZM144.669 39.7435V20.0382H140.817V17.646L144.669 17.1189V13.9563C144.669 11.7398 145.237 10.0099 146.372 8.76647C147.535 7.49604 149.319 6.86082 151.724 6.86082C153.076 6.86082 154.035 6.94191 154.603 7.10409C155.198 7.26628 155.644 7.38791 155.941 7.46901L156.387 7.59064L155.738 10.5505C154.225 10.3613 153.062 10.2667 152.251 10.2667C151.44 10.2667 150.697 10.5775 150.021 11.1992C149.373 11.7939 149.048 12.74 149.048 14.0374V17.1189H153.914L153.427 20.0382H149.048V39.8246C149.048 42.0411 148.602 43.771 147.71 45.0144C146.818 46.2849 145.44 46.9201 143.575 46.9201C142.52 46.9201 141.574 46.7714 140.736 46.4741L141.263 43.3926C141.588 43.4737 142.007 43.5142 142.52 43.5142C143.953 43.5142 144.669 42.2573 144.669 39.7435Z" fill="black"/>
<path d="M39.7011 35.8956C37.8712 34.8392 35.7955 34.283 33.6826 34.283C31.5696 34.283 29.4939 34.8392 27.6641 35.8956V18.5088C29.4939 17.4523 31.5696 16.8961 33.6826 16.8961C35.7955 16.8961 37.8712 17.4523 39.7011 18.5088M39.7011 35.8956C41.531 34.8392 43.6067 34.283 45.7196 34.283C47.8326 34.283 49.9083 34.8392 51.7381 35.8956V18.5088C49.9083 17.4523 47.8326 16.8961 45.7196 16.8961C43.6067 16.8961 41.531 17.4523 39.7011 18.5088M39.7011 35.8956V18.5088" stroke="black" stroke-width="4.01235" stroke-linecap="round" stroke-linejoin="round"/>
</svg>
